<svg t="1755884825151" class="icon" viewBox="0 0 1024 1024" version="1.1" xmlns="http://www.w3.org/2000/svg" p-id="5111" width="200" height="200"><path d="M117.40046222 490.08184889h-85.42738963c-13.0950637 0-23.56868741 10.4736237-23.56868741 23.56868741 0 13.0950637 10.4736237 23.56868741 23.56868741 23.5686874h85.42738963c13.0950637 0 23.56868741-10.4736237 23.56868741-23.5686874 0-13.0950637-10.4736237-23.56868741-23.56868741-23.56868741z m94.49320296-243.58760297c9.06581333 9.06581333 23.77500445 9.06581333 33.24131557 0 9.06581333-9.46631111 9.06581333-24.17550222 0-33.24131555l-55.80269038-55.80269037c-9.46631111-9.46631111-24.17550222-9.46631111-33.24131555 0-9.46631111 9.06581333-9.46631111 23.98132148 0 33.24131555-0.0121363 0 55.80269037 55.80269037 55.80269036 55.80269037z m6.84487112 527.46770963l-62.65969778 62.65969778c-9.46631111 9.06581333-9.46631111 23.77500445 0 33.24131556 9.06581333 9.06581333 23.98132148 9.06581333 33.24131556 0l62.65969777-62.65969778c9.06581333-9.46631111 9.06581333-24.17550222 0-33.24131556-9.06581333-9.47844741-24.17550222-9.47844741-33.24131555 0z m293.34641778-644.12178963c13.0950637 0 23.56868741-10.4736237 23.5686874-23.5686874v-72.93914074c0-13.0950637-10.4736237-23.56868741-23.5686874-23.56868741-13.0950637 0-23.56868741 10.4736237-23.56868741 23.56868741v73.13332147c0 12.90088297 10.4736237 23.37450667 23.56868741 23.37450667z m479.7113837 360.24168297h-74.95376593c-13.0950637 0-23.56868741 10.4736237-23.5686874 23.56868741 0 13.0950637 10.4736237 23.56868741 23.5686874 23.5686874h74.95376593c13.0950637 0 23.56868741-10.4736237 23.5686874-23.5686874 0-13.0950637-10.67994075-23.56868741-23.5686874-23.56868741zM512.08495408 882.75171555c-13.0950637 0-23.56868741 10.87412148-23.56868741 23.56868742v87.23569778c0 13.0950637 10.4736237 23.56868741 23.56868741 23.5686874 13.0950637 0 23.56868741-10.4736237 23.5686874-23.5686874v-87.23569778c0-12.69456592-10.4736237-23.56868741-23.5686874-23.56868742z m322.55848295-725.30147555l-50.57194666 50.36562963c-9.06581333 9.46631111-9.06581333 24.17550222 0 33.24131555 9.46631111 9.46631111 24.17550222 9.46631111 33.24131555 0l50.57194667-50.36562963c9.06581333-9.46631111 9.06581333-24.17550222 0-33.24131555-9.25999408-9.47844741-24.17550222-9.47844741-33.24131556 0z m-24.576 621.13564445c-9.06581333-9.06581333-23.98132148-9.06581333-33.24131555 0-9.06581333 9.46631111-9.06581333 24.17550222 0 33.24131555l57.81731555 57.81731555c9.06581333 9.06581333 23.98132148 9.06581333 33.24131556 0 9.06581333-9.46631111 9.06581333-24.17550222 0-33.24131555l-57.81731556-57.81731555zM517.12151703 201.56567703c-168.23333925 0-305.03367111 136.39983408-305.03367111 304.82735408 0 168.63383703 136.80033185 305.22785185 305.03367111 305.22785186s304.63317333-136.39983408 304.63317334-305.22785186c0-168.22120297-136.39983408-304.82735408-304.63317334-304.82735408z m0 557.0802726c-139.21545482 0-252.24078222-113.02532741-252.24078221-252.24078222 0-121.89696 86.43470222-223.63553185 201.47465481-247.20421926-17.33063111 34.05444741-26.79694222 72.7328237-26.79694222 113.23164444 0 139.42177185 112.83114667 252.24078222 252.24078222 252.24078223 17.33063111 0 34.45494518-1.80830815 50.57194667-5.03656297-41.50613333 82.59963259-126.93352297 139.00913778-225.24965927 139.00913778z" p-id="5112" fill="#8a8a8a"></path></svg>